HIERARCHY
	ROOT Hips
	{
		OFFSET 0 0 0 
		CHANNELS 6 Xposition Yposition Zposition Zrotation Xrotation Yrotation
		JOINT LHipJoint
		{
			OFFSET 0 0 0 
			CHANNELS 3 Zrotation Xrotation Yrotation
			JOINT LeftUpLeg
			{
				OFFSET 0.0783705 -0.0912565 0.0336595 
				CHANNELS 3 Zrotation Xrotation Yrotation
				JOINT LeftLeg
				{
					OFFSET 0.117854 -0.323802 0 
					CHANNELS 3 Zrotation Xrotation Yrotation
					JOINT LeftFoot
					{
						OFFSET 0.135318 -0.371784 0 
						CHANNELS 3 Zrotation Xrotation Yrotation
						JOINT LeftToeBase
						{
							OFFSET 0.0102135 -0.028061 0.104268 
							CHANNELS 3 Zrotation Xrotation Yrotation
							End Site
							{
								OFFSET 0 -0 0.0542675
							}
						}
					}
				}
			}
		}
		JOINT RHipJoint
		{
			OFFSET 0 0 0 
			CHANNELS 3 Zrotation Xrotation Yrotation
			JOINT RightUpLeg
			{
				OFFSET -0.075711 -0.0912565 0.0336595 
				CHANNELS 3 Zrotation Xrotation Yrotation
				JOINT RightLeg
				{
					OFFSET -0.124412 -0.341819 0 
					CHANNELS 3 Zrotation Xrotation Yrotation
					JOINT RightFoot
					{
						OFFSET -0.135017 -0.370955 0 
						CHANNELS 3 Zrotation Xrotation Yrotation
						JOINT RightToeBase
						{
							OFFSET -0.009875 -0.0271315 0.111076 
							CHANNELS 3 Zrotation Xrotation Yrotation
							End Site
							{
								OFFSET -0 -0 0.0574575
							}
						}
					}
				}
			}
		}
		JOINT LowerBack
		{
			OFFSET 0 0 0 
			CHANNELS 3 Zrotation Xrotation Yrotation
			JOINT Spine
			{
				OFFSET -0.0007835 0.106437 -0.007921 
				CHANNELS 3 Zrotation Xrotation Yrotation
				JOINT Spine1
				{
					OFFSET 0.003049 0.106663 -0.0005215 
					CHANNELS 3 Zrotation Xrotation Yrotation
					JOINT Neck
					{
						OFFSET 0 0 0 
						CHANNELS 3 Zrotation Xrotation Yrotation
						JOINT Neck1
						{
							OFFSET -0.00252 0.089216 0.0066935 
							CHANNELS 3 Zrotation Xrotation Yrotation
							JOINT Head
							{
								OFFSET -9e-005 0.08844 -0.0166515 
								CHANNELS 3 Zrotation Xrotation Yrotation
								End Site
								{
									OFFSET 0.000367 0.0906245 -0.0063595
								}
							}
						}
					}
					JOINT LeftShoulder
					{
						OFFSET 0 0 0 
						CHANNELS 3 Zrotation Xrotation Yrotation
						JOINT LeftArm
						{
							OFFSET 0.1861 0.047094 -0.0271585 
							CHANNELS 3 Zrotation Xrotation Yrotation
							JOINT LeftForeArm
							{
								OFFSET 0.257301 -0 0 
								CHANNELS 3 Zrotation Xrotation Yrotation
								JOINT LeftHand
								{
									OFFSET 0.182226 -0 -0 
									CHANNELS 3 Zrotation Xrotation Yrotation
									JOINT LeftFingerBase
									{
										OFFSET 0 0 0 
										CHANNELS 3 Zrotation Xrotation Yrotation
										JOINT LFingers
										{
											OFFSET 0.028114 -0 0 
											CHANNELS 3 Zrotation Xrotation Yrotation
											End Site
											{
												OFFSET 0.022666 -0 0
											}
										}
									}
									JOINT LThumb
									{
										OFFSET 0 0 0 
										CHANNELS 3 Zrotation Xrotation Yrotation
										End Site
										{
											OFFSET 0.0230125 -0 0.0230125
										}
									}
								}
							}
						}
					}
					JOINT RightShoulder
					{
						OFFSET 0 0 0 
						CHANNELS 3 Zrotation Xrotation Yrotation
						JOINT RightArm
						{
							OFFSET -0.165127 0.0613395 -0.0234705 
							CHANNELS 3 Zrotation Xrotation Yrotation
							JOINT RightForeArm
							{
								OFFSET -0.266957 -0 0 
								CHANNELS 3 Zrotation Xrotation Yrotation
								JOINT RightHand
								{
									OFFSET -0.178239 -0 -0 
									CHANNELS 3 Zrotation Xrotation Yrotation
									JOINT RightFingerBase
									{
										OFFSET 0 0 0 
										CHANNELS 3 Zrotation Xrotation Yrotation
										JOINT RFingers
										{
											OFFSET -0.0428735 -0 0 
											CHANNELS 3 Zrotation Xrotation Yrotation
											End Site
											{
												OFFSET -0.034566 -0 0
											}
										}
									}
									JOINT RThumb
									{
										OFFSET 0 0 0 
										CHANNELS 3 Zrotation Xrotation Yrotation
										End Site
										{
											OFFSET -0.0350935 -0 0.0350935
										}
									}
								}
							}
						}
					}
				}
			}
		}
	}
MOTION
Frames:	10
Frame Time:	0.0166667
0.083635 0.8375 0.30727 3.34797 -0.119999 0.2264 -0 0 -0 -17.1574 -8.0592 -0.812525 -5.0372 36.0831 15.3816 -2.4832 -22.2748 -10.6346 -1.65908 -22.0777 -8.48949 -0 0 -0 1.71808 -33.9345 7.26592 5.68142 37.8877 -16.4524 0.818456 3.10156 -10.7646 0.000159426 0.2378 -0.0866007 -4.9441 16.8701 -2.90982 4.88788 0.450281 -4.37944 9.40195 -8.15587 -1.81203 -4.23626 -19.2769 1.24914 -0.802415 30.1908 3.43811 1.45396 13.3161 0.89147 -0 0 -0 -73.9222 30.6409 5.85997 23.4882 -9.51995 -43.656 0 -15.9466 0 -4.78691 -1.64875 18.9618 -7.125 0 0 -30.4202 -0.779667 46.3276 -0 0 -0 71.9764 10.0864 -14.8996 -26.0099 -12.1343 49.4245 -0 6.0765 -0 13.6556 3.82696 15.3612 7.125 0 -0 33.5213 21.3707 -16.1847 
0.088095 0.83954 0.2987 3.18634 -0.256999 -0.148001 -0 0 -0 -17.5229 -8.52829 -1.12059 -5.07191 36.1851 15.4406 -2.02316 -22.2166 -9.44695 -2.0056 -24.1064 -9.37295 -0 0 -0 1.41337 -33.2099 7.28358 5.20778 36.5776 -15.6695 0.585726 2.48736 -9.30765 0.00655693 -1.43364 0.521863 -5.14105 17.1348 -2.62153 4.80386 0.493764 -4.04995 9.35231 -8.31905 -1.63824 -4.36824 -19.0384 1.26638 -0.862034 30.0741 3.5115 1.46869 13.2139 0.9064 -0 0 -0 -74.5499 29.3022 7.04814 23.6081 -9.63322 -43.9195 0 -15.5197 0 -5.39306 -1.82975 18.6868 -7.125 0 0 -31.0265 -0.602279 46.0012 -0 0 -0 71.7953 10.3747 -14.868 -26.0178 -12.1432 49.4433 -0 7.4446 -0 13.892 4.08029 16.0503 7.125 0 -0 33.5153 21.9527 -15.5559 
0.091605 0.842375 0.290415 2.60984 -0.265993 -0.422005 -0 0 -0 -17.3083 -9.09974 -1.52358 -5.1026 36.2744 15.4925 -1.81467 -21.7008 -8.90922 -1.82266 -23.0647 -8.91572 -0 0 -0 1.68505 -32.3835 7.55247 4.86634 35.5746 -15.0899 0.20754 1.55114 -5.45611 0.245507 -8.74537 3.20965 -4.90369 17.262 -2.34194 4.77438 0.388317 -3.63648 9.09848 -8.61066 -1.4285 -4.44529 -18.2551 1.27361 -1.0203 29.9577 3.54953 1.41888 13.002 0.902746 -0 0 -0 -74.7135 28.9172 8.12149 23.6099 -9.63505 -43.9238 0 -15.567 0 -5.18814 -1.76216 18.7094 -7.125 0 0 -30.8205 -0.627005 46.0509 -0 0 -0 71.6214 10.6928 -14.9524 -25.9657 -12.084 49.3189 -0 7.5638 -0 13.0776 3.94428 16.4949 7.125 0 -0 32.7336 21.669 -15.1262 
0.09422 0.84506 0.282665 2.07467 -0.37097 -0.730815 -0 0 -0 -16.997 -9.55983 -1.68683 -5.11132 36.2997 15.5072 -1.62074 -21.1131 -8.39125 -1.86838 -23.3307 -9.03172 -0 0 -0 2.04061 -31.5822 8.28073 4.65988 34.9414 -14.7321 -0.00257229 -0.585782 -3.02666 0.048549 -3.9065 1.42421 -4.59736 17.4821 -2.02161 4.61508 0.413367 -3.16878 8.62921 -8.82687 -1.20862 -4.48909 -18.3484 1.28957 -0.691947 30.0037 3.49445 1.5361 13.0323 0.917432 -0 0 -0 -74.3964 28.3284 8.83027 23.5637 -9.59121 -43.8219 0 -15.3928 0 -5.49189 -1.85308 18.5894 -7.125 0 0 -31.1239 -0.545511 45.9034 -0 0 -0 71.5443 10.8155 -14.9035 -26.0407 -12.1695 49.4982 -0 7.5955 -0 12.5964 3.80418 16.5365 7.125 0 -0 32.3341 21.3684 -15.0749 
0.09626 0.84819 0.275495 1.65172 -0.368955 -0.897919 -0 0 -0 -16.7583 -10.0001 -1.83296 -5.04019 36.0919 15.3867 -1.5356 -20.295 -8.16375 -1.74754 -22.6185 -8.72219 -0 0 -0 2.1332 -30.892 8.36623 4.6595 34.9402 -14.7315 -0.017428 -1.06762 -1.05868 0.202404 -7.94795 2.9128 -4.41154 17.2844 -1.7445 4.44682 0.555548 -2.77443 8.18766 -8.65248 -1.0451 -4.11172 -19.1759 1.2848 -1.12854 30.5072 3.57688 1.35641 13.4352 0.916175 -0 0 -0 -73.805 27.6639 9.04159 23.4853 -9.51735 -43.6498 0 -15.468 0 -5.25794 -1.80292 18.8745 -7.125 0 0 -30.8944 -0.707363 46.182 -0 0 -0 71.145 10.6797 -14.1276 -25.9306 -12.0439 49.2349 -0 7.7387 -0 11.9912 3.80156 17.3361 7.125 0 -0 31.6173 21.4272 -14.3145 
0.09766 0.850685 0.268195 1.20777 -0.503986 -0.424516 -0 0 -0 -16.471 -10.0313 -2.27398 -4.9496 35.824 15.2324 -1.53175 -19.4108 -8.17519 -1.7781 -22.8013 -8.80132 -0 0 -0 1.90848 -30.1378 7.69208 4.8976 35.6685 -15.1434 -0.0223679 -2.18227 -0.274899 0.121598 -6.17005 2.25507 -3.99145 17.188 -1.68089 4.2883 0.592581 -2.61824 7.71479 -8.61202 -0.993705 -4.47537 -18.1508 1.26148 -0.900573 29.8489 3.5107 1.45218 12.9325 0.907522 -0 0 -0 -73.5159 26.9249 9.61812 23.5087 -9.53931 -43.701 0 -15.234 0 -5.75271 -2.02471 19.326 -7.125 0 0 -31.4044 -0.911586 46.4928 -0 0 -0 70.671 11.1075 -13.921 -26.0565 -12.1876 49.5361 -0 7.558 -0 11.8077 3.5943 16.6932 7.125 0 -0 31.6519 20.9318 -14.9062 
0.09831 0.85454 0.26012 0.484426 -0.510993 -0.299812 -0 0 -0 -15.7533 -10.5102 -2.5314 -4.8428 35.5033 15.0493 -1.48241 -18.4278 -8.06605 -1.73707 -22.555 -8.69482 -0 0 -0 2.53071 -29.7926 7.58591 5.29038 36.8127 -15.8078 -0.065866 -2.90986 -1.00189 0.0932577 -5.40631 1.97398 -3.62612 17.3171 -1.44627 4.28053 0.594647 -2.23672 7.4029 -8.76092 -0.818652 -4.77163 -18.211 1.21917 -0.832037 29.9942 3.53951 1.54518 12.9993 0.893602 -0 0 -0 -73.066 26.2566 9.83546 23.4914 -9.52298 -43.6631 0 -15.3244 0 -5.1447 -1.66447 17.8808 -7.125 0 0 -30.757 -0.206069 45.3463 -0 0 -0 69.9868 11.2567 -13.3474 -26.1037 -12.2418 49.6494 -0 7.7181 -0 11.4792 3.4404 16.4628 7.125 0 -0 31.4495 20.5822 -15.1091 
0.099375 0.857895 0.253 0.37911 -0.515 -0.0656026 -0 0 -0 -15.7912 -10.659 -2.79425 -4.65812 34.9357 14.729 -1.44555 -17.544 -7.99967 -1.70552 -22.3634 -8.6122 -0 0 -0 2.06785 -29.5235 6.65639 5.84042 38.308 -16.7101 -0.192568 -4.50959 -2.1315 0.0493872 -3.93727 1.43549 -3.46083 17.3133 -1.23496 3.97657 0.504308 -1.94948 6.89194 -8.92037 -0.686504 -4.64826 -18.0647 1.28022 -1.10262 30.1491 3.67847 1.46313 13.0373 0.929358 -0 0 -0 -72.4635 25.5575 10.0427 23.4448 -9.47926 -43.5609 0 -16.1573 0 -6.20065 -2.14706 19.0255 -7.125 0 0 -31.8498 -0.726371 46.1691 -0 0 -0 69.3975 11.6344 -13.1812 -26.1747 -12.3237 49.8202 -0 7.89 -0 10.7328 3.18338 16.3292 7.125 0 -0 30.8773 20.0203 -15.207 
0.09975 0.861115 0.246 0.119419 -0.563995 0.235611 -0 0 -0 -15.5708 -10.7332 -3.0041 -4.42253 34.1868 14.3138 -1.41912 -16.5164 -7.99073 -1.61344 -21.7917 -8.36715 -0 0 -0 1.81211 -29.1682 5.73882 6.54848 40.0731 -17.8303 -0.256767 -4.72752 -3.00594 0.0539081 -4.1133 1.49986 -3.24162 16.9935 -0.997246 3.77238 0.73741 -1.60633 6.40463 -8.5482 -0.556179 -4.91105 -18.6999 1.20333 -1.01906 30.3629 3.68592 1.56126 13.2565 0.90584 -0 0 -0 -71.7904 25.0325 9.8015 23.4134 -9.44978 -43.4919 0 -15.8163 0 -6.43678 -2.31826 19.7252 -7.125 0 0 -32.107 -1.08282 46.7251 -0 0 -0 68.5117 11.6766 -12.2788 -26.1404 -12.2841 49.7378 -0 8.0216 -0 9.97667 3.06784 16.9218 7.125 0 -0 30.0967 19.8568 -14.6281 
0.09936 0.86429 0.23914 -0.321807 -0.800971 0.485947 -0 0 -0 -15.0656 -10.5448 -3.12584 -4.15946 33.3146 13.8403 -1.37503 -15.4952 -7.93923 -1.69227 -22.2825 -8.57741 -0 0 -0 1.90808 -28.4851 5.02114 7.37631 41.9446 -19.0918 -0.302947 -4.96389 -3.49683 0.0270899 -2.9199 1.06368 -2.97884 16.8723 -0.697527 3.6396 0.891714 -1.16944 5.97183 -8.37983 -0.368939 -4.92233 -18.5588 1.13524 -1.36277 30.3379 3.70132 1.43612 13.2269 0.86957 -0 0 -0 -71.2925 24.8764 9.87384 23.423 -9.45879 -43.513 0 -15.4056 0 -5.81774 -2.10308 19.8076 -7.125 0 0 -31.4805 -1.15944 46.8927 -0 0 -0 67.6709 11.9899 -11.8789 -26.2482 -12.409 49.9976 -0 7.3359 -0 10.3566 3.15707 16.7703 7.125 0 -0 30.449 20.0206 -14.7837 
